<mxfile host="Electron" modified="2024-02-27T11:22:58.656Z" agent="Mozilla/5.0 (Windows NT 10.0; Win64; x64) AppleWebKit/537.36 (KHTML, like Gecko) draw.io/23.1.5 Chrome/120.0.6099.109 Electron/28.1.0 Safari/537.36" etag="vrHZO5nKJAdheYX-sfDi" version="23.1.5" type="device">
  <diagram name="Page-1" id="E4MS3hRZulyTGoS9u9fE">
    <mxGraphModel dx="1036" dy="614" grid="1" gridSize="10" guides="1" tooltips="1" connect="1" arrows="1" fold="1" page="1" pageScale="1" pageWidth="850" pageHeight="1100" math="0" shadow="0">
      <root>
        <mxCell id="0" />
        <mxCell id="1" parent="0" />
        <mxCell id="1ZsHXfUt3pOsQtf5Unxh-1" value="" style="rounded=0;whiteSpace=wrap;html=1;" vertex="1" parent="1">
          <mxGeometry x="40" y="40" width="760" height="470" as="geometry" />
        </mxCell>
        <mxCell id="1ZsHXfUt3pOsQtf5Unxh-2" value="Login" style="rounded=0;whiteSpace=wrap;html=1;" vertex="1" parent="1">
          <mxGeometry x="690" y="50" width="100" height="20" as="geometry" />
        </mxCell>
        <mxCell id="1ZsHXfUt3pOsQtf5Unxh-3" value="&lt;font style=&quot;font-size: 24px;&quot;&gt;KÃ©p&lt;/font&gt;" style="rounded=0;whiteSpace=wrap;html=1;" vertex="1" parent="1">
          <mxGeometry x="295" y="150" width="260" height="260" as="geometry" />
        </mxCell>
        <mxCell id="1ZsHXfUt3pOsQtf5Unxh-5" value="Teszt 1" style="text;html=1;align=center;verticalAlign=middle;whiteSpace=wrap;rounded=0;" vertex="1" parent="1">
          <mxGeometry x="395" y="410" width="60" height="30" as="geometry" />
        </mxCell>
      </root>
    </mxGraphModel>
  </diagram>
</mxfile>
